<svg xmlns="http://www.w3.org/2000/svg" width="427" height="382" viewBox="0 0 427 382" fill="none"><path d="M418.072 352.131L397.364 329.636L415.889 308.332L404.178 308.398L387.836 329.768L404.972 352.197L418.072 352.131ZM376.192 352.329L385.521 352.263L385.256 289.675L375.927 289.741L376.192 352.329ZM330.475 352.461H339.803L339.737 334.399C339.671 324.078 345.626 315.676 353.036 315.676C357.932 315.676 361.174 318.719 361.174 323.351L361.306 352.329L370.568 352.263L370.436 321.366C370.37 313.228 363.621 307.869 353.499 307.935C347.743 307.935 342.648 312.302 339.539 318.918L338.943 308.663L330.21 308.729L330.475 352.461ZM291.771 330.761C291.771 322.292 295.74 316.602 301.695 316.536L312.876 316.47L312.942 329.967C313.008 338.501 307.98 345.448 301.827 345.515C295.806 345.581 291.771 339.692 291.771 330.761ZM282.111 330.827C282.177 344.324 289.323 353.322 300.041 353.255C305.73 353.255 310.759 349.087 313.736 342.868L314.265 352.263L322.734 352.726C322.734 352.726 322.337 345.779 322.337 340.619L322.205 308.663L314.067 308.729L312.942 315.941L308.245 308.729L299.842 308.795C289.124 308.927 282.045 317.661 282.111 330.827ZM248.832 298.805H255.713C262.726 298.739 267.489 301.848 267.489 306.479C267.489 312.632 262.792 316.801 255.779 316.867H248.898L248.832 298.805ZM248.964 324.541L258.161 324.475C265.24 324.475 269.937 329.04 269.937 336.054C270.004 341.479 265.306 345.118 258.227 345.118L249.03 345.184L248.964 324.541ZM239.172 352.925L259.749 352.858C271.79 352.792 279.862 346.044 279.795 336.054C279.795 328.18 272.451 321.697 263.321 320.307C270.731 318.124 276.223 312.699 276.223 306.413C276.156 297.151 268.085 290.998 256.044 291.064L238.974 291.13L239.172 352.925ZM192.595 353.123L201.924 353.057L201.858 335.657C201.791 325.005 207.746 316.337 215.156 316.271C220.052 316.205 223.294 319.315 223.36 323.946L223.492 352.925L232.821 352.858L232.689 321.961C232.622 313.823 225.874 308.464 215.751 308.464C209.995 308.53 204.967 312.831 201.858 319.579L201.725 290.402L192.397 290.469L192.595 353.123ZM155.876 350.94C159.581 352.461 165.072 353.851 169.24 353.851C181.348 353.785 187.831 349.021 187.765 340.222C187.699 330.827 179.76 328.445 172.945 326.46C168.314 325.071 164.477 323.152 164.41 320.373C164.41 317.727 167.454 316.271 173.144 316.205C177.576 316.205 181.546 317.859 184.788 320.373L184.722 310.052C181.017 309.06 177.378 308.663 173.673 308.663C161.962 308.729 155.677 312.897 155.677 320.572C155.743 330.694 164.013 333.209 170.894 335.193C175.658 336.583 179.032 338.303 179.032 341.214C179.032 344.456 176.253 346.242 170.299 346.308C165.998 346.308 160.308 344.39 155.743 340.817L155.876 350.94ZM118.362 331.555C118.296 323.02 122.266 317.396 128.286 317.33L139.468 317.264L139.534 330.761C139.6 339.295 134.572 346.242 128.485 346.242C122.398 346.375 118.428 340.486 118.362 331.555ZM108.703 331.621C108.769 345.118 115.914 354.115 126.566 354.115C132.322 354.049 137.284 349.947 140.262 343.728L140.791 353.123L149.259 353.586C149.259 353.586 148.863 346.639 148.863 341.479L148.73 309.523L140.592 309.589L139.468 316.801L134.77 309.589L126.434 309.655C115.716 309.655 108.637 318.455 108.703 331.621ZM57.7586 353.719L67.0874 353.652L76.2838 323.88L85.7448 353.52L95.0735 353.454L108.835 309.589L96.9922 309.655L90.4423 345.845L81.2458 309.721L71.454 309.788L62.5223 346.044L55.443 309.92L43.6002 309.986L57.7586 353.719ZM15.8125 333.738L24.7443 299.93L34.0068 333.606L15.8125 333.738ZM0 353.983L10.4535 353.917L13.8938 341.016L35.9916 340.949L39.4982 353.785L49.9516 353.719L29.8387 292.056L19.5837 292.123L0 353.983Z" fill="white"></path><path d="M56.1046 291.395C56.5016 291.725 56.7663 292.122 56.7663 292.453C56.7663 292.652 56.5016 292.784 56.0385 292.916C54.0537 293.181 52.5981 293.313 51.738 293.313C51.2749 293.313 50.8779 293.049 50.4148 292.453C50.1502 292.056 49.8855 290.667 49.5547 288.219C49.2239 285.506 48.8269 283.72 48.3638 282.794C47.7684 281.47 46.9082 280.743 45.8497 280.743C45.5189 280.743 45.0557 280.809 44.5926 281.007C44.1295 281.537 43.4017 282.86 42.4093 285.043C41.3507 287.359 40.7553 289.145 40.7553 290.535C40.7553 291.196 40.9538 291.527 41.2846 291.659C41.8138 291.858 42.0123 291.99 42.0785 292.122C42.0785 292.321 41.8138 292.453 41.2184 292.519C39.5644 292.784 37.8442 292.85 35.9917 292.916C34.9993 292.983 34.5361 292.321 34.47 291.13C34.47 289.013 35.5947 286.102 37.9765 282.397C38.3735 281.735 39.4321 280.346 41.0199 278.162C42.4755 276.178 43.3355 275.119 43.534 274.921H43.4679C43.0709 274.921 42.4755 274.987 41.7477 275.185C40.9538 275.318 40.3583 275.45 39.9613 275.45C39.2997 275.45 38.9689 275.384 38.8366 275.119C38.6381 274.788 38.5719 274.127 38.5719 273.068C38.5719 273.2 38.572 273.2 38.6381 273.002V271.348C38.6381 269.76 38.4396 268.9 38.0427 268.768C37.5134 268.503 37.2487 268.371 37.2487 268.172C37.2487 267.974 38.175 267.709 40.0937 267.444C41.6154 267.246 42.4755 267.114 42.5416 267.114C43.6002 267.114 44.1295 267.444 44.1295 268.04C44.1295 268.238 44.1956 268.437 44.1956 268.701V270.157C44.1956 271.877 44.328 273.333 44.5926 274.391L45.7835 274.259C45.982 274.259 46.5113 274.127 47.2391 273.994C47.9007 273.862 48.3638 273.796 48.6946 273.862C49.1577 273.862 49.3562 273.928 49.3562 274.127C49.3562 274.391 48.7608 275.251 47.636 276.707C46.4451 278.229 45.6512 279.353 45.3866 280.015C45.3204 280.081 45.3865 280.081 45.5189 280.081C46.1143 280.081 47.0406 279.883 48.2976 279.552C49.4885 279.155 50.4148 279.023 51.0764 279.023C51.4072 279.023 51.6719 279.023 51.8703 279.089C53.5905 279.684 54.7153 282.86 55.2446 288.55C55.3769 289.939 55.443 290.733 55.443 290.799C55.443 290.865 55.7077 291.064 56.1046 291.395Z" fill="#F7923A"></path><path d="M74.8283 269.562C74.6298 269.562 74.4313 269.562 74.3651 269.628C74.2328 269.826 74.0343 271.48 73.7035 274.59L73.2404 279.552C73.4389 279.618 73.6374 279.684 73.902 279.684C74.4313 279.684 74.8944 279.486 75.3575 279.089C76.4823 278.096 77.0116 276.111 77.0116 273.2V272.605C76.8792 270.554 76.2176 269.562 74.8283 269.562ZM65.4995 272.803C64.9041 274.06 64.5733 275.516 64.6394 277.17C64.6394 278.162 64.7056 278.758 64.7718 279.023C64.9702 279.684 65.4334 280.015 66.1611 280.015C66.8889 280.015 67.4182 279.75 67.8152 279.155C68.3445 275.119 68.7414 272.142 68.9399 270.025C67.3521 270.355 66.2273 271.282 65.4995 272.803ZM81.312 278.03C80.3196 279.221 79.0626 280.015 77.5409 280.412C76.4823 280.677 75.6883 280.809 75.1591 280.809C74.8283 280.809 74.1005 280.743 72.9757 280.544C72.248 285.573 71.851 288.55 71.7187 289.608C71.6525 290.204 71.6525 290.733 71.7848 291.064C71.7848 291.13 71.9172 291.262 72.1156 291.461C72.3141 291.659 72.3803 291.792 72.3803 291.858C72.3803 292.122 72.0495 292.255 71.3879 292.321C69.5354 292.519 68.4106 292.652 68.0798 292.652C66.7566 292.652 66.095 292.189 66.095 291.262C66.095 290.336 66.2935 288.484 66.7566 285.639C67.2197 282.661 67.4182 281.007 67.4182 280.677C66.0288 281.206 64.7718 281.471 63.5809 281.471C60.4713 281.471 58.9496 279.949 58.9496 276.839C58.9496 274.259 60.0082 272.274 62.1253 270.951C63.8455 269.826 66.095 269.165 69.0061 268.966C70.5939 268.834 72.3803 268.768 74.299 268.701C75.159 268.569 75.953 268.503 76.8131 268.503C77.607 268.503 78.3348 268.569 78.9302 268.701C80.1211 269.032 81.0474 269.628 81.709 270.62C82.3706 271.613 82.7014 272.671 82.7014 273.928C82.7676 275.45 82.3045 276.839 81.312 278.03Z" fill="#F7923A"></path><path d="M106.718 269.561C104.27 269.561 102.88 268.834 102.55 267.312L100.3 267.444C100.3 267.841 100.697 268.635 101.623 269.826C102.417 270.885 102.947 271.546 103.145 271.745C103.741 272.34 104.468 272.737 105.262 272.869C106.784 273.531 107.578 274.788 107.578 276.641C107.578 277.17 107.512 277.699 107.446 278.229C106.652 283.323 106.255 286.697 106.255 288.417V288.682C106.321 289.211 106.387 289.873 106.585 290.601C106.784 291.593 106.982 292.056 107.115 292.056C107.181 292.056 107.181 291.99 107.181 291.792C107.181 291.99 106.85 292.122 106.189 292.189L103.145 292.453C102.219 292.453 101.557 292.056 101.226 291.13C101.094 290.799 101.028 290.27 101.028 289.542C101.028 288.682 101.094 288.02 101.16 287.491C101.425 285.374 101.623 283.521 101.822 282.066L102.153 279.552C102.483 276.971 102.616 275.582 102.616 275.45C102.616 273.796 102.087 273.002 100.962 273.068C99.9694 273.134 99.1093 274.06 98.2492 275.847C97.5876 277.302 97.1906 278.626 96.9921 279.816C96.6613 282.066 96.3967 284.977 96.1982 288.484C96.132 289.939 96.2643 290.799 96.7936 291.13C97.0583 291.395 97.2568 291.527 97.2568 291.593C97.2568 291.792 96.926 291.924 96.2644 291.99C94.5442 292.189 93.4856 292.255 93.0886 292.255C92.1624 292.255 91.5669 291.924 91.2361 291.196C91.1038 290.865 91.0376 290.204 91.0376 289.079C91.0376 286.763 91.2361 284.183 91.5669 281.338C91.8316 279.155 92.4932 277.435 93.4194 276.111C94.3457 274.92 95.8012 273.73 97.8522 272.737C97.2568 272.076 96.1982 270.422 94.5442 267.643H92.5593C91.9639 269.363 89.6482 270.289 85.6786 270.223C85.2816 270.223 85.0831 270.157 85.0831 269.892C85.0831 269.826 85.2816 269.429 85.7447 268.701C86.1417 267.907 86.4064 267.444 86.4064 267.18C86.4725 267.113 86.4725 267.047 86.4725 266.915C86.4725 266.65 86.274 266.187 86.0094 265.592L85.4801 264.666C85.4801 264.269 86.4725 264.07 88.5235 264.07C90.8391 264.07 92.1624 264.93 92.6255 266.783L102.285 266.32C102.748 264.401 104.336 263.408 107.181 263.408C107.379 263.408 107.644 263.408 107.909 263.475C109.1 263.541 109.695 263.673 109.695 263.872C109.695 263.739 109.497 264.07 109.166 264.732C108.835 265.393 108.703 265.989 108.703 266.32V266.65C108.835 267.312 109.166 267.974 109.827 268.635C109.827 268.768 109.629 268.9 109.298 269.032C108.636 269.429 107.776 269.561 106.718 269.561Z" fill="#F7923A"></path><path d="M140.791 291.792C140.791 292.255 140.063 292.453 138.674 292.453C138.343 292.453 137.88 292.519 137.218 292.586C136.557 292.652 136.093 292.718 135.763 292.718C134.903 292.718 134.307 292.387 134.175 291.725C134.109 291.461 134.042 290.799 134.042 289.608C134.042 288.616 134.042 287.094 134.175 285.043C134.241 282.463 134.307 281.338 134.307 281.603C134.307 281.206 134.373 280.081 134.506 278.361C134.638 276.905 134.638 275.781 134.638 274.921C134.638 271.216 133.513 269.363 131.33 269.363C130.073 269.363 129.213 270.157 128.75 271.877C128.485 272.737 128.286 273.862 128.154 275.251C127.889 278.361 127.757 280.28 127.757 281.074C127.757 283.058 128.088 284.249 128.683 284.646C129.014 284.845 129.213 285.043 129.213 285.109C129.213 285.242 128.551 285.44 127.294 285.639C125.772 285.837 124.912 285.903 124.648 285.903C123.589 285.903 122.994 285.374 122.729 284.315C122.663 283.985 122.597 282.992 122.597 281.404C122.597 276.641 123.324 273.333 124.912 271.546C125.772 270.554 127.228 269.76 129.213 269.032C131.065 268.437 132.719 268.106 134.241 268.106C136.093 268.106 137.483 268.701 138.475 269.958C139.401 271.083 139.798 272.539 139.732 274.391V275.251C139.666 277.832 139.6 279.486 139.534 280.28L139.335 282.595C139.203 284.779 139.137 286.763 139.137 288.748V289.608C139.137 289.939 139.203 290.27 139.401 290.667C139.6 291.13 139.798 291.395 140.063 291.461C140.592 291.461 140.791 291.659 140.791 291.792Z" fill="#F7923A"></path><path d="M160.705 280.478L159.713 282.331C158.257 285.176 157.066 287.623 156.206 289.807C156.074 290.071 156.074 290.27 156.074 290.468C156.074 290.799 156.206 290.998 156.537 291.13C156.669 291.196 156.802 291.262 156.802 291.395C156.802 291.593 156.537 291.725 155.942 291.792C153.825 292.122 152.501 292.321 151.906 292.321C150.715 292.321 149.987 291.858 149.855 290.865V290.733C149.855 290.204 150.318 289.013 151.31 287.16L152.435 285.176C154.751 280.875 155.942 278.229 155.942 277.302V277.038C155.611 276.773 155.082 276.641 154.42 276.707C154.222 276.707 153.692 276.773 152.898 276.839C152.303 276.905 151.84 276.972 151.575 276.972C151.046 276.972 150.781 276.839 150.781 276.508L151.112 275.781C151.509 274.921 151.774 274.259 151.972 273.994C152.766 272.473 153.229 271.083 153.56 269.76C153.295 268.9 152.634 268.437 151.575 268.437C151.178 268.437 150.781 268.503 150.384 268.701C149.855 268.9 149.59 269.098 149.59 269.363C149.59 271.017 148.995 272.34 147.804 273.333C146.613 274.325 145.224 274.854 143.503 274.854C143.305 274.854 143.106 274.854 143.04 274.854C142.709 274.854 142.511 274.722 142.511 274.59L143.106 273.465C143.503 272.737 143.702 272.208 143.768 271.877C143.768 271.811 143.834 271.679 143.768 271.48C143.768 271.216 143.636 270.819 143.503 270.289C143.305 269.76 143.239 269.363 143.239 269.165C143.239 268.966 143.437 268.768 143.768 268.701C147.738 267.841 150.781 267.444 152.898 267.444C155.214 267.444 157.066 267.775 158.39 268.503C158.919 268.768 159.184 269.297 159.184 269.958C159.184 270.488 158.72 271.811 157.86 274.06C157.331 275.384 157.066 276.045 157.066 276.178C157.066 276.508 157.331 276.641 157.794 276.575C158.191 276.575 158.72 276.508 159.448 276.376C160.176 276.244 160.705 276.178 161.102 276.178C161.962 276.178 162.425 276.442 162.425 276.972C162.095 277.435 161.632 278.626 160.705 280.478Z" fill="#F7923A"></path><path d="M184.987 288.02C184.854 289.608 185.053 290.468 185.582 290.667C185.78 290.733 185.847 290.799 185.847 290.931C185.847 291.196 185.582 291.328 184.987 291.461C182.869 291.858 181.612 292.056 181.083 292.056C179.826 292.056 179.23 291.527 179.23 290.468V290.071C179.23 289.41 179.495 287.028 180.024 283.058C180.488 279.684 180.686 277.501 180.686 276.376C180.686 275.185 180.488 274.325 180.223 273.796C179.826 273.002 179.032 272.605 177.973 272.605C176.65 272.605 175.525 273.266 174.533 274.656C173.805 275.714 173.276 276.971 172.945 278.493C173.607 278.361 174.07 278.295 174.401 278.295C174.798 278.295 174.996 278.427 174.93 278.692C174.93 278.824 174.93 278.89 174.864 278.956C174.335 280.478 174.004 281.537 173.805 282.066C173.21 284.117 172.747 286.234 172.35 288.417C172.284 288.814 172.284 289.211 172.284 289.608C172.284 290.336 172.482 290.799 172.879 290.931C173.144 291.064 173.276 291.13 173.276 291.262C173.276 291.527 172.813 291.725 171.82 291.858C169.836 292.122 168.777 292.255 168.579 292.255C167.321 292.255 166.726 291.593 166.726 290.138C166.726 288.748 166.991 286.962 167.52 284.911C168.115 282.728 168.777 281.14 169.571 280.015C169.571 280.015 169.571 280.015 169.505 280.015C169.439 280.015 169.372 280.015 169.174 280.015L168.512 280.147C167.917 280.213 167.454 280.28 167.189 280.28C166.925 280.28 166.792 280.213 166.726 280.147C166.66 280.081 166.66 279.883 166.66 279.618C166.66 278.162 167.652 276.442 169.769 274.457C169.372 274.457 168.843 274.524 168.049 274.722C167.321 274.854 166.726 274.987 166.329 274.987C165.932 274.987 165.734 274.92 165.667 274.788C165.469 274.457 165.337 273.663 165.337 272.473V271.811C165.337 271.612 165.337 271.282 165.337 270.885C165.337 270.422 165.403 270.091 165.403 269.892V269.164C165.403 267.51 165.138 266.584 164.675 266.452C164.344 266.386 164.146 266.253 164.146 266.055C164.146 265.856 164.543 265.592 165.403 265.327C167.321 264.798 168.777 264.533 169.769 264.533C170.497 264.533 170.828 264.666 170.894 264.996C170.894 265.129 170.894 265.393 170.894 265.856C170.894 266.121 170.894 267.047 170.828 268.635C170.762 269.694 170.762 270.752 170.762 271.679C170.762 272.605 170.828 273.2 170.96 273.531C171.754 273.134 172.879 272.671 174.335 272.142C176.253 271.48 177.973 271.215 179.495 271.215C180.157 271.215 180.686 271.282 181.083 271.348C182.803 271.679 184.06 272.274 184.788 273.002C185.582 273.862 185.979 275.119 185.979 276.773C185.979 277.765 185.913 278.758 185.847 279.684C185.516 283.323 185.185 286.036 184.987 288.02Z" fill="#F7923A"></path><path d="M316.068 138.554C315.567 137.425 314.814 136.548 314.187 135.544C313.435 134.541 312.683 133.663 311.805 132.911C310.927 132.158 309.924 131.657 308.67 131.155C307.666 130.904 306.412 130.779 305.158 130.904C302.776 131.155 300.393 132.033 298.261 133.036C293.872 135.168 289.734 137.927 285.721 140.811C281.708 143.695 277.821 146.705 273.933 149.715L263.399 157.866C259.888 160.625 256.252 163.133 252.74 165.766C249.104 168.274 245.467 170.908 241.705 173.165L236.062 176.676L230.168 179.811C226.28 182.069 222.017 183.699 217.878 185.58L211.608 187.837L208.473 188.966L205.087 189.843L198.441 191.474C196.184 191.975 193.927 192.226 191.669 192.728C187.155 193.606 182.64 193.856 178.126 194.233C173.611 194.358 169.097 194.609 164.583 194.483L157.811 194.358L151.039 193.856C150.412 193.856 149.91 193.731 149.283 193.731C175.367 212.541 209.602 219.94 243.21 210.786C279.326 201.004 306.287 174.544 317.824 142.065C317.322 141.062 316.695 139.808 316.068 138.554Z" fill="white"></path><path d="M320.458 86.2612C319.705 86.2612 318.451 86.3866 317.322 86.7628C315.065 87.3898 312.683 88.5185 310.3 89.7725C305.535 92.2805 301.02 95.541 296.506 98.676L282.837 108.457C278.197 111.718 273.557 114.853 268.917 117.988C266.535 119.493 264.152 120.872 261.769 122.377C259.387 123.882 256.879 125.136 254.371 126.515C251.988 127.895 249.354 129.149 246.846 130.403C244.338 131.657 241.83 132.911 239.197 133.789C236.563 134.792 234.055 136.046 231.297 136.798L223.145 139.306L214.869 141.187C212.11 141.814 209.351 142.065 206.592 142.441C203.833 142.943 200.949 143.068 198.19 143.194C195.306 143.445 192.547 143.57 189.788 143.445C186.904 143.445 184.145 143.57 181.386 143.445C178.502 143.319 175.743 143.319 172.985 143.068C167.341 142.692 161.824 142.316 156.181 141.689L139.502 139.933C133.984 139.432 128.341 138.93 122.824 139.056C120.065 139.056 117.306 139.306 114.798 139.933C113.544 140.184 112.541 140.56 111.537 141.187C116.052 154.605 123.074 166.519 131.853 176.676C132.354 176.802 132.73 176.802 133.232 176.802C139.251 177.679 145.271 178.432 151.29 179.059C157.309 179.686 163.329 180.187 169.348 180.313C172.358 180.313 175.367 180.438 178.377 180.313C181.386 180.187 184.396 180.062 187.28 179.811C190.165 179.435 193.174 179.059 196.059 178.683L204.837 176.802L213.364 174.168C216.123 173.165 218.882 171.911 221.641 170.782C224.399 169.528 227.033 168.149 229.666 166.895C232.3 165.515 234.933 163.885 237.567 162.506C242.708 159.371 247.724 156.11 252.615 152.599C257.506 149.088 262.396 145.451 267.162 141.814C272.052 138.178 276.943 134.541 282.084 131.03C287.226 127.644 292.618 124.383 298.763 122.628C301.773 121.875 305.158 121.499 308.419 122.126C311.554 122.753 314.689 124.258 316.946 126.515C318.075 127.644 319.203 128.773 320.207 130.027C323.342 116.107 323.593 101.31 320.583 86.5121C320.458 86.2612 320.458 86.2612 320.458 86.2612Z" fill="white"></path><path d="M147.528 129.274C153.673 130.026 159.817 130.653 165.837 131.28C171.981 131.782 178.001 132.158 184.145 132.284C187.155 132.284 190.29 132.284 193.3 132.158C196.309 131.907 199.319 131.782 202.329 131.531C205.338 131.03 208.348 130.779 211.232 130.152L219.885 128.145L228.663 125.261C231.422 124.133 234.055 122.878 236.814 121.75C239.573 120.496 242.207 118.991 244.84 117.612C247.473 116.232 250.107 114.477 252.615 112.972C257.756 109.711 262.647 106.325 267.538 102.689C271.3 99.9299 274.937 97.0456 278.699 94.1614C273.557 95.7916 268.541 97.171 263.776 98.5505L263.149 98.6759C261.895 98.9267 260.766 99.1775 259.512 99.5537C257.004 100.181 254.496 100.808 251.737 101.309L251.235 101.435C250.107 101.56 248.853 101.811 247.724 102.062C245.216 102.563 242.708 102.94 239.949 103.441L239.197 103.567C237.943 103.692 236.689 103.817 235.435 103.943C233.052 104.194 230.67 104.444 228.161 104.695L226.907 104.821L214.743 105.071L202.078 104.194C199.57 103.943 197.062 103.567 194.554 103.19C193.3 103.065 192.171 102.814 190.917 102.689L190.165 102.563C187.531 102.062 185.149 101.56 182.766 101.058C181.512 100.808 180.258 100.557 179.004 100.306L178.502 100.181C175.869 99.5537 173.361 98.8013 170.978 98.1743C169.724 97.7981 168.595 97.4219 167.341 97.1711L166.714 97.0456C159.692 94.9138 152.419 92.4058 144.769 89.5215C137.245 86.6373 129.972 83.6276 123.701 81.1196C121.946 80.3671 118.936 79.1131 115.174 77.4829C113.293 76.7305 111.287 75.8527 109.029 74.9749C103.512 92.2804 102.508 111.216 106.647 130.026C107.65 129.65 108.653 129.274 109.656 129.023C116.177 127.393 122.573 127.518 128.843 127.895C135.238 127.895 141.383 128.522 147.528 129.274Z" fill="#F7923A"></path><path d="M186.026 20.5503C198.441 32.9651 224.65 53.5311 293.998 34.5954C274.059 13.277 245.467 -0.0156359 213.74 0.109766C200.949 0.109766 188.66 2.36699 177.374 6.50527C178.878 11.1451 181.512 16.0359 186.026 20.5503Z" fill="#F7923A"></path><path d="M312.056 60.8044C310.425 57.5439 308.67 54.4089 306.789 51.2738C285.47 55.0359 266.284 57.0423 249.355 57.0423C213.991 57.1677 188.284 49.2674 172.608 33.2159C166.589 27.0712 162.827 20.4249 160.444 14.1548C141.634 24.6886 126.335 40.7401 116.804 60.052C137.747 73.0938 214.242 111.718 312.056 60.8044Z" fill="#F7923A"></path></svg>